<mxfile host="Electron" modified="2024-04-01T08:14:22.096Z" agent="Mozilla/5.0 (Windows NT 10.0; Win64; x64) AppleWebKit/537.36 (KHTML, like Gecko) draw.io/24.1.0 Chrome/120.0.6099.109 Electron/28.1.0 Safari/537.36" etag="AJl1ZUjLEAvol01F7yCE" version="24.1.0" type="device">
  <diagram name="Страница — 1" id="C2El7RWr6IgxaPxbsp63">
    <mxGraphModel dx="1050" dy="669" grid="1" gridSize="10" guides="1" tooltips="1" connect="1" arrows="1" fold="1" page="1" pageScale="1" pageWidth="827" pageHeight="1169" math="0" shadow="0">
      <root>
        <mxCell id="0" />
        <mxCell id="1" parent="0" />
        <mxCell id="gj6iwb3OOVinEKeIAZ-u-29" value="" style="html=1;verticalAlign=bottom;endArrow=none;dashed=1;endSize=8;curved=0;rounded=0;endFill=0;" parent="1" edge="1">
          <mxGeometry relative="1" as="geometry">
            <mxPoint x="454.16999999999996" y="1420" as="sourcePoint" />
            <mxPoint x="454.16999999999996" y="1680" as="targetPoint" />
            <Array as="points">
              <mxPoint x="454.16999999999996" y="1460" />
              <mxPoint x="454.16999999999996" y="1500" />
            </Array>
          </mxGeometry>
        </mxCell>
        <mxCell id="gj6iwb3OOVinEKeIAZ-u-28" value="" style="html=1;verticalAlign=bottom;endArrow=none;dashed=1;endSize=8;curved=0;rounded=0;endFill=0;" parent="1" edge="1">
          <mxGeometry relative="1" as="geometry">
            <mxPoint x="640" y="1420" as="sourcePoint" />
            <mxPoint x="640" y="1680" as="targetPoint" />
            <Array as="points">
              <mxPoint x="640" y="1460" />
              <mxPoint x="640" y="1500" />
            </Array>
          </mxGeometry>
        </mxCell>
        <mxCell id="Ryx-yTiXa8dug25cju8O-30" value="Семинар курса" style="html=1;whiteSpace=wrap;" parent="1" vertex="1">
          <mxGeometry x="200" y="320" width="110" height="50" as="geometry" />
        </mxCell>
        <mxCell id="Ryx-yTiXa8dug25cju8O-31" value="" style="html=1;points=[[0,0,0,0,5],[0,1,0,0,-5],[1,0,0,0,5],[1,1,0,0,-5]];perimeter=orthogonalPerimeter;outlineConnect=0;targetShapes=umlLifeline;portConstraint=eastwest;newEdgeStyle={&quot;curved&quot;:0,&quot;rounded&quot;:0};" parent="1" vertex="1">
          <mxGeometry x="100" y="420" width="30" height="200" as="geometry" />
        </mxCell>
        <mxCell id="Ryx-yTiXa8dug25cju8O-32" value="Студент" style="shape=umlActor;verticalLabelPosition=bottom;verticalAlign=top;html=1;" parent="1" vertex="1">
          <mxGeometry x="100" y="320" width="30" height="60" as="geometry" />
        </mxCell>
        <mxCell id="Ryx-yTiXa8dug25cju8O-33" value="Учебный курс" style="html=1;whiteSpace=wrap;" parent="1" vertex="1">
          <mxGeometry x="330" y="320" width="110" height="50" as="geometry" />
        </mxCell>
        <mxCell id="Ryx-yTiXa8dug25cju8O-34" value="Список пройденных семинаров" style="html=1;whiteSpace=wrap;" parent="1" vertex="1">
          <mxGeometry x="460" y="320" width="110" height="50" as="geometry" />
        </mxCell>
        <mxCell id="Ryx-yTiXa8dug25cju8O-35" value="Слушатель" style="html=1;whiteSpace=wrap;" parent="1" vertex="1">
          <mxGeometry x="590" y="320" width="110" height="50" as="geometry" />
        </mxCell>
        <mxCell id="Ryx-yTiXa8dug25cju8O-36" value="" style="html=1;points=[[0,0,0,0,5],[0,1,0,0,-5],[1,0,0,0,5],[1,1,0,0,-5]];perimeter=orthogonalPerimeter;outlineConnect=0;targetShapes=umlLifeline;portConstraint=eastwest;newEdgeStyle={&quot;curved&quot;:0,&quot;rounded&quot;:0};" parent="1" vertex="1">
          <mxGeometry x="240" y="420" width="30" height="80" as="geometry" />
        </mxCell>
        <mxCell id="Ryx-yTiXa8dug25cju8O-37" value="" style="endArrow=none;dashed=1;html=1;rounded=0;entryX=0.5;entryY=1;entryDx=0;entryDy=0;" parent="1" source="Ryx-yTiXa8dug25cju8O-36" target="Ryx-yTiXa8dug25cju8O-30" edge="1">
          <mxGeometry width="50" height="50" relative="1" as="geometry">
            <mxPoint x="390" y="440" as="sourcePoint" />
            <mxPoint x="440" y="390" as="targetPoint" />
          </mxGeometry>
        </mxCell>
        <mxCell id="Ryx-yTiXa8dug25cju8O-38" value="" style="html=1;points=[[0,0,0,0,5],[0,1,0,0,-5],[1,0,0,0,5],[1,1,0,0,-5]];perimeter=orthogonalPerimeter;outlineConnect=0;targetShapes=umlLifeline;portConstraint=eastwest;newEdgeStyle={&quot;curved&quot;:0,&quot;rounded&quot;:0};" parent="1" vertex="1">
          <mxGeometry x="370" y="450" width="30" height="80" as="geometry" />
        </mxCell>
        <mxCell id="Ryx-yTiXa8dug25cju8O-39" value="" style="html=1;points=[[0,0,0,0,5],[0,1,0,0,-5],[1,0,0,0,5],[1,1,0,0,-5]];perimeter=orthogonalPerimeter;outlineConnect=0;targetShapes=umlLifeline;portConstraint=eastwest;newEdgeStyle={&quot;curved&quot;:0,&quot;rounded&quot;:0};" parent="1" vertex="1">
          <mxGeometry x="500" y="480" width="30" height="80" as="geometry" />
        </mxCell>
        <mxCell id="Ryx-yTiXa8dug25cju8O-40" value="" style="html=1;points=[[0,0,0,0,5],[0,1,0,0,-5],[1,0,0,0,5],[1,1,0,0,-5]];perimeter=orthogonalPerimeter;outlineConnect=0;targetShapes=umlLifeline;portConstraint=eastwest;newEdgeStyle={&quot;curved&quot;:0,&quot;rounded&quot;:0};" parent="1" vertex="1">
          <mxGeometry x="630" y="510" width="30" height="110" as="geometry" />
        </mxCell>
        <mxCell id="Ryx-yTiXa8dug25cju8O-41" value="" style="endArrow=none;dashed=1;html=1;rounded=0;entryX=0.5;entryY=1;entryDx=0;entryDy=0;" parent="1" source="Ryx-yTiXa8dug25cju8O-38" target="Ryx-yTiXa8dug25cju8O-33" edge="1">
          <mxGeometry width="50" height="50" relative="1" as="geometry">
            <mxPoint x="265" y="430" as="sourcePoint" />
            <mxPoint x="265" y="310" as="targetPoint" />
          </mxGeometry>
        </mxCell>
        <mxCell id="Ryx-yTiXa8dug25cju8O-42" value="" style="endArrow=none;dashed=1;html=1;rounded=0;entryX=0.5;entryY=1;entryDx=0;entryDy=0;" parent="1" source="Ryx-yTiXa8dug25cju8O-39" target="Ryx-yTiXa8dug25cju8O-34" edge="1">
          <mxGeometry width="50" height="50" relative="1" as="geometry">
            <mxPoint x="275" y="440" as="sourcePoint" />
            <mxPoint x="275" y="320" as="targetPoint" />
          </mxGeometry>
        </mxCell>
        <mxCell id="Ryx-yTiXa8dug25cju8O-43" value="" style="endArrow=none;dashed=1;html=1;rounded=0;entryX=0.5;entryY=1;entryDx=0;entryDy=0;" parent="1" source="Ryx-yTiXa8dug25cju8O-40" target="Ryx-yTiXa8dug25cju8O-35" edge="1">
          <mxGeometry width="50" height="50" relative="1" as="geometry">
            <mxPoint x="285" y="450" as="sourcePoint" />
            <mxPoint x="285" y="330" as="targetPoint" />
          </mxGeometry>
        </mxCell>
        <mxCell id="Ryx-yTiXa8dug25cju8O-44" value="" style="endArrow=classic;html=1;rounded=0;" parent="1" source="Ryx-yTiXa8dug25cju8O-36" target="Ryx-yTiXa8dug25cju8O-38" edge="1">
          <mxGeometry width="50" height="50" relative="1" as="geometry">
            <mxPoint x="300" y="600" as="sourcePoint" />
            <mxPoint x="350" y="550" as="targetPoint" />
          </mxGeometry>
        </mxCell>
        <mxCell id="Ryx-yTiXa8dug25cju8O-45" value="" style="endArrow=classic;html=1;rounded=0;" parent="1" source="Ryx-yTiXa8dug25cju8O-38" target="Ryx-yTiXa8dug25cju8O-39" edge="1">
          <mxGeometry width="50" height="50" relative="1" as="geometry">
            <mxPoint x="430" y="680" as="sourcePoint" />
            <mxPoint x="480" y="630" as="targetPoint" />
          </mxGeometry>
        </mxCell>
        <mxCell id="Ryx-yTiXa8dug25cju8O-46" value="" style="endArrow=classic;html=1;rounded=0;" parent="1" source="Ryx-yTiXa8dug25cju8O-39" target="Ryx-yTiXa8dug25cju8O-40" edge="1">
          <mxGeometry width="50" height="50" relative="1" as="geometry">
            <mxPoint x="460" y="670" as="sourcePoint" />
            <mxPoint x="510" y="620" as="targetPoint" />
          </mxGeometry>
        </mxCell>
        <mxCell id="Ryx-yTiXa8dug25cju8O-47" value="" style="endArrow=classic;html=1;rounded=0;exitX=1;exitY=0;exitDx=0;exitDy=5;exitPerimeter=0;" parent="1" source="Ryx-yTiXa8dug25cju8O-31" target="Ryx-yTiXa8dug25cju8O-36" edge="1">
          <mxGeometry width="50" height="50" relative="1" as="geometry">
            <mxPoint x="290" y="630" as="sourcePoint" />
            <mxPoint x="340" y="580" as="targetPoint" />
          </mxGeometry>
        </mxCell>
        <mxCell id="Ryx-yTiXa8dug25cju8O-48" style="edgeStyle=orthogonalEdgeStyle;rounded=0;orthogonalLoop=1;jettySize=auto;html=1;curved=0;exitX=1;exitY=0;exitDx=0;exitDy=5;exitPerimeter=0;" parent="1" source="Ryx-yTiXa8dug25cju8O-40" target="Ryx-yTiXa8dug25cju8O-40" edge="1">
          <mxGeometry relative="1" as="geometry">
            <Array as="points">
              <mxPoint x="680" y="515" />
              <mxPoint x="680" y="590" />
            </Array>
          </mxGeometry>
        </mxCell>
        <mxCell id="Ryx-yTiXa8dug25cju8O-49" value="" style="html=1;verticalAlign=bottom;endArrow=open;dashed=1;endSize=8;curved=0;rounded=0;exitX=0;exitY=1;exitDx=0;exitDy=-5;exitPerimeter=0;" parent="1" source="Ryx-yTiXa8dug25cju8O-40" target="Ryx-yTiXa8dug25cju8O-31" edge="1">
          <mxGeometry relative="1" as="geometry">
            <mxPoint x="570" y="600" as="sourcePoint" />
            <mxPoint x="490" y="600" as="targetPoint" />
          </mxGeometry>
        </mxCell>
        <mxCell id="Ryx-yTiXa8dug25cju8O-50" value="записьНа&lt;div&gt;Семинар()&lt;/div&gt;" style="text;html=1;align=center;verticalAlign=middle;resizable=0;points=[];autosize=1;strokeColor=none;fillColor=none;" parent="1" vertex="1">
          <mxGeometry x="160" y="380" width="80" height="40" as="geometry" />
        </mxCell>
        <mxCell id="Ryx-yTiXa8dug25cju8O-51" value="проверка&lt;div&gt;Подготовленности&lt;div&gt;Студента()&lt;/div&gt;&lt;/div&gt;" style="text;html=1;align=center;verticalAlign=middle;resizable=0;points=[];autosize=1;strokeColor=none;fillColor=none;" parent="1" vertex="1">
          <mxGeometry x="265" y="400" width="130" height="60" as="geometry" />
        </mxCell>
        <mxCell id="Ryx-yTiXa8dug25cju8O-52" value="запрос&lt;div&gt;Списка&lt;div&gt;Пройденных&lt;/div&gt;&lt;div&gt;Семинаров&lt;/div&gt;&lt;div&gt;(Студент)&lt;/div&gt;&lt;/div&gt;" style="text;html=1;align=center;verticalAlign=middle;resizable=0;points=[];autosize=1;strokeColor=none;fillColor=none;" parent="1" vertex="1">
          <mxGeometry x="420" y="400" width="90" height="90" as="geometry" />
        </mxCell>
        <mxCell id="Ryx-yTiXa8dug25cju8O-53" value="" style="endArrow=none;dashed=1;html=1;rounded=0;" parent="1" target="Ryx-yTiXa8dug25cju8O-36" edge="1">
          <mxGeometry width="50" height="50" relative="1" as="geometry">
            <mxPoint x="255" y="660" as="sourcePoint" />
            <mxPoint x="295" y="340" as="targetPoint" />
          </mxGeometry>
        </mxCell>
        <mxCell id="Ryx-yTiXa8dug25cju8O-54" value="" style="endArrow=none;dashed=1;html=1;rounded=0;" parent="1" target="Ryx-yTiXa8dug25cju8O-38" edge="1">
          <mxGeometry width="50" height="50" relative="1" as="geometry">
            <mxPoint x="385" y="660" as="sourcePoint" />
            <mxPoint x="265" y="510" as="targetPoint" />
          </mxGeometry>
        </mxCell>
        <mxCell id="Ryx-yTiXa8dug25cju8O-55" value="" style="endArrow=none;dashed=1;html=1;rounded=0;" parent="1" target="Ryx-yTiXa8dug25cju8O-39" edge="1">
          <mxGeometry width="50" height="50" relative="1" as="geometry">
            <mxPoint x="515" y="660" as="sourcePoint" />
            <mxPoint x="275" y="520" as="targetPoint" />
          </mxGeometry>
        </mxCell>
        <mxCell id="Ryx-yTiXa8dug25cju8O-56" value="" style="endArrow=none;dashed=1;html=1;rounded=0;" parent="1" target="Ryx-yTiXa8dug25cju8O-40" edge="1">
          <mxGeometry width="50" height="50" relative="1" as="geometry">
            <mxPoint x="645" y="660" as="sourcePoint" />
            <mxPoint x="285" y="530" as="targetPoint" />
          </mxGeometry>
        </mxCell>
        <mxCell id="Ryx-yTiXa8dug25cju8O-57" value="передачаСписка()" style="text;html=1;align=center;verticalAlign=middle;resizable=0;points=[];autosize=1;strokeColor=none;fillColor=none;" parent="1" vertex="1">
          <mxGeometry x="530" y="480" width="120" height="30" as="geometry" />
        </mxCell>
        <mxCell id="Ryx-yTiXa8dug25cju8O-58" value="определение&lt;div&gt;Статуса&lt;/div&gt;&lt;div&gt;Подготовленности&lt;/div&gt;&lt;div&gt;(список)&lt;/div&gt;" style="text;html=1;align=center;verticalAlign=middle;resizable=0;points=[];autosize=1;strokeColor=none;fillColor=none;" parent="1" vertex="1">
          <mxGeometry x="670" y="480" width="130" height="70" as="geometry" />
        </mxCell>
        <mxCell id="Ryx-yTiXa8dug25cju8O-59" value="сообщениеРезультата&lt;br&gt;Записи(статус)" style="text;html=1;align=center;verticalAlign=middle;resizable=0;points=[];autosize=1;strokeColor=none;fillColor=none;" parent="1" vertex="1">
          <mxGeometry x="150" y="615" width="150" height="40" as="geometry" />
        </mxCell>
        <mxCell id="Ryx-yTiXa8dug25cju8O-60" value="Семинар курса" style="html=1;whiteSpace=wrap;" parent="1" vertex="1">
          <mxGeometry x="140" y="970" width="110" height="50" as="geometry" />
        </mxCell>
        <mxCell id="Ryx-yTiXa8dug25cju8O-61" value="Учебный курс" style="html=1;whiteSpace=wrap;" parent="1" vertex="1">
          <mxGeometry x="140" y="1170" width="110" height="50" as="geometry" />
        </mxCell>
        <mxCell id="Ryx-yTiXa8dug25cju8O-62" value="Список пройденных семинаров" style="html=1;whiteSpace=wrap;" parent="1" vertex="1">
          <mxGeometry x="530" y="1170" width="110" height="50" as="geometry" />
        </mxCell>
        <mxCell id="Ryx-yTiXa8dug25cju8O-63" value="Слушатель" style="html=1;whiteSpace=wrap;" parent="1" vertex="1">
          <mxGeometry x="530" y="970" width="110" height="50" as="geometry" />
        </mxCell>
        <mxCell id="Ryx-yTiXa8dug25cju8O-64" value="Студент" style="shape=umlActor;verticalLabelPosition=bottom;verticalAlign=top;html=1;" parent="1" vertex="1">
          <mxGeometry x="370" y="1050" width="30" height="60" as="geometry" />
        </mxCell>
        <mxCell id="Ryx-yTiXa8dug25cju8O-68" value="" style="endArrow=none;html=1;rounded=0;exitX=1;exitY=0.5;exitDx=0;exitDy=0;endFill=0;entryX=0;entryY=0.3333333333333333;entryDx=0;entryDy=0;entryPerimeter=0;" parent="1" source="Ryx-yTiXa8dug25cju8O-60" target="Ryx-yTiXa8dug25cju8O-64" edge="1">
          <mxGeometry width="50" height="50" relative="1" as="geometry">
            <mxPoint x="250" y="1048.95" as="sourcePoint" />
            <mxPoint x="360" y="1048.95" as="targetPoint" />
          </mxGeometry>
        </mxCell>
        <mxCell id="Ryx-yTiXa8dug25cju8O-69" value="" style="endArrow=none;html=1;rounded=0;exitX=1;exitY=0.3333333333333333;exitDx=0;exitDy=0;endFill=0;entryX=0;entryY=0.5;entryDx=0;entryDy=0;exitPerimeter=0;" parent="1" source="Ryx-yTiXa8dug25cju8O-64" target="Ryx-yTiXa8dug25cju8O-63" edge="1">
          <mxGeometry width="50" height="50" relative="1" as="geometry">
            <mxPoint x="260" y="1005" as="sourcePoint" />
            <mxPoint x="380" y="1080" as="targetPoint" />
          </mxGeometry>
        </mxCell>
        <mxCell id="Ryx-yTiXa8dug25cju8O-70" value="" style="endArrow=none;html=1;rounded=0;exitX=0.5;exitY=1;exitDx=0;exitDy=0;endFill=0;entryX=0.5;entryY=0;entryDx=0;entryDy=0;" parent="1" source="Ryx-yTiXa8dug25cju8O-60" target="Ryx-yTiXa8dug25cju8O-61" edge="1">
          <mxGeometry width="50" height="50" relative="1" as="geometry">
            <mxPoint x="270" y="1015" as="sourcePoint" />
            <mxPoint x="390" y="1090" as="targetPoint" />
          </mxGeometry>
        </mxCell>
        <mxCell id="Ryx-yTiXa8dug25cju8O-71" value="" style="endArrow=none;html=1;rounded=0;exitX=0;exitY=0.5;exitDx=0;exitDy=0;endFill=0;" parent="1" source="Ryx-yTiXa8dug25cju8O-62" edge="1">
          <mxGeometry width="50" height="50" relative="1" as="geometry">
            <mxPoint x="205" y="1030" as="sourcePoint" />
            <mxPoint x="250" y="1195" as="targetPoint" />
          </mxGeometry>
        </mxCell>
        <mxCell id="Ryx-yTiXa8dug25cju8O-72" value="" style="endArrow=none;html=1;rounded=0;exitX=0.5;exitY=1;exitDx=0;exitDy=0;endFill=0;entryX=0.5;entryY=0;entryDx=0;entryDy=0;" parent="1" edge="1">
          <mxGeometry width="50" height="50" relative="1" as="geometry">
            <mxPoint x="589.47" y="1020" as="sourcePoint" />
            <mxPoint x="589.47" y="1170" as="targetPoint" />
          </mxGeometry>
        </mxCell>
        <mxCell id="Ryx-yTiXa8dug25cju8O-73" value="" style="endArrow=classic;html=1;rounded=0;" parent="1" edge="1">
          <mxGeometry width="50" height="50" relative="1" as="geometry">
            <mxPoint x="335" y="1080" as="sourcePoint" />
            <mxPoint x="265" y="1040" as="targetPoint" />
          </mxGeometry>
        </mxCell>
        <mxCell id="Ryx-yTiXa8dug25cju8O-74" value="" style="endArrow=classic;html=1;rounded=0;exitX=1;exitY=0;exitDx=0;exitDy=5;exitPerimeter=0;" parent="1" edge="1">
          <mxGeometry width="50" height="50" relative="1" as="geometry">
            <mxPoint x="330" y="1180" as="sourcePoint" />
            <mxPoint x="440" y="1180" as="targetPoint" />
          </mxGeometry>
        </mxCell>
        <mxCell id="Ryx-yTiXa8dug25cju8O-75" value="" style="endArrow=classic;html=1;rounded=0;" parent="1" edge="1">
          <mxGeometry width="50" height="50" relative="1" as="geometry">
            <mxPoint x="570" y="1140" as="sourcePoint" />
            <mxPoint x="570" y="1079.47" as="targetPoint" />
          </mxGeometry>
        </mxCell>
        <mxCell id="Ryx-yTiXa8dug25cju8O-76" value="" style="endArrow=classic;html=1;rounded=0;" parent="1" edge="1">
          <mxGeometry width="50" height="50" relative="1" as="geometry">
            <mxPoint x="210" y="1060" as="sourcePoint" />
            <mxPoint x="210" y="1120" as="targetPoint" />
          </mxGeometry>
        </mxCell>
        <mxCell id="Ryx-yTiXa8dug25cju8O-77" value="" style="html=1;verticalAlign=bottom;endArrow=open;dashed=1;endSize=8;curved=0;rounded=0;" parent="1" edge="1">
          <mxGeometry relative="1" as="geometry">
            <mxPoint x="520" y="1030" as="sourcePoint" />
            <mxPoint x="450" y="1070" as="targetPoint" />
          </mxGeometry>
        </mxCell>
        <mxCell id="Ryx-yTiXa8dug25cju8O-78" value="" style="shape=requiredInterface;html=1;verticalLabelPosition=bottom;sketch=0;rotation=-92;" parent="1" vertex="1">
          <mxGeometry x="560.94" y="911.8100000000001" width="58.12" height="58.19" as="geometry" />
        </mxCell>
        <mxCell id="Ryx-yTiXa8dug25cju8O-80" value="" style="endArrow=classic;html=1;rounded=0;exitX=1;exitY=0;exitDx=0;exitDy=5;exitPerimeter=0;" parent="1" edge="1">
          <mxGeometry width="50" height="50" relative="1" as="geometry">
            <mxPoint x="620.9399999999999" y="900" as="sourcePoint" />
            <mxPoint x="560.9399999999999" y="900" as="targetPoint" />
          </mxGeometry>
        </mxCell>
        <mxCell id="Ryx-yTiXa8dug25cju8O-81" value="определение&lt;div&gt;Статуса&lt;/div&gt;&lt;div&gt;Подготовленности&lt;/div&gt;&lt;div&gt;(список)&lt;/div&gt;" style="text;html=1;align=center;verticalAlign=middle;resizable=0;points=[];autosize=1;strokeColor=none;fillColor=none;" parent="1" vertex="1">
          <mxGeometry x="525" y="830" width="130" height="70" as="geometry" />
        </mxCell>
        <mxCell id="Ryx-yTiXa8dug25cju8O-82" value="записьНа&lt;div&gt;Семинар()&lt;/div&gt;" style="text;html=1;align=center;verticalAlign=middle;resizable=0;points=[];autosize=1;strokeColor=none;fillColor=none;rotation=30;" parent="1" vertex="1">
          <mxGeometry x="280" y="990" width="80" height="40" as="geometry" />
        </mxCell>
        <mxCell id="Ryx-yTiXa8dug25cju8O-83" value="сообщениеРезультата&lt;br&gt;Записи(статус)" style="text;html=1;align=center;verticalAlign=middle;resizable=0;points=[];autosize=1;strokeColor=none;fillColor=none;rotation=-30;" parent="1" vertex="1">
          <mxGeometry x="380" y="990" width="150" height="40" as="geometry" />
        </mxCell>
        <mxCell id="Ryx-yTiXa8dug25cju8O-84" value="проверка&lt;div&gt;Подготовленности&lt;div&gt;Студента()&lt;/div&gt;&lt;/div&gt;" style="text;html=1;align=center;verticalAlign=middle;resizable=0;points=[];autosize=1;strokeColor=none;fillColor=none;" parent="1" vertex="1">
          <mxGeometry x="60" y="1060" width="130" height="60" as="geometry" />
        </mxCell>
        <mxCell id="Ryx-yTiXa8dug25cju8O-87" value="запрос&lt;div&gt;Списка&lt;div&gt;Пройденных&lt;/div&gt;&lt;div&gt;Семинаров&lt;/div&gt;&lt;div&gt;(Студент)&lt;/div&gt;&lt;/div&gt;" style="text;html=1;align=center;verticalAlign=middle;resizable=0;points=[];autosize=1;strokeColor=none;fillColor=none;" parent="1" vertex="1">
          <mxGeometry x="340" y="1200" width="90" height="90" as="geometry" />
        </mxCell>
        <mxCell id="Ryx-yTiXa8dug25cju8O-88" value="передачаСписка()" style="text;html=1;align=center;verticalAlign=middle;resizable=0;points=[];autosize=1;strokeColor=none;fillColor=none;" parent="1" vertex="1">
          <mxGeometry x="600" y="1080" width="120" height="30" as="geometry" />
        </mxCell>
        <mxCell id="gj6iwb3OOVinEKeIAZ-u-1" value="Заемщик" style="shape=umlActor;verticalLabelPosition=bottom;verticalAlign=top;html=1;" parent="1" vertex="1">
          <mxGeometry x="100" y="1350" width="30" height="60" as="geometry" />
        </mxCell>
        <mxCell id="gj6iwb3OOVinEKeIAZ-u-2" value="" style="html=1;points=[[0,0,0,0,5],[0,1,0,0,-5],[1,0,0,0,5],[1,1,0,0,-5]];perimeter=orthogonalPerimeter;outlineConnect=0;targetShapes=umlLifeline;portConstraint=eastwest;newEdgeStyle={&quot;curved&quot;:0,&quot;rounded&quot;:0};" parent="1" vertex="1">
          <mxGeometry x="105" y="1440" width="20" height="220" as="geometry" />
        </mxCell>
        <mxCell id="gj6iwb3OOVinEKeIAZ-u-3" value="Банк" style="html=1;whiteSpace=wrap;" parent="1" vertex="1">
          <mxGeometry x="400" y="1370" width="110" height="50" as="geometry" />
        </mxCell>
        <mxCell id="gj6iwb3OOVinEKeIAZ-u-4" value="Сотрудник банка" style="shape=umlActor;verticalLabelPosition=bottom;verticalAlign=top;html=1;" parent="1" vertex="1">
          <mxGeometry x="250" y="1350" width="30" height="60" as="geometry" />
        </mxCell>
        <mxCell id="gj6iwb3OOVinEKeIAZ-u-6" value="БД" style="html=1;whiteSpace=wrap;" parent="1" vertex="1">
          <mxGeometry x="585" y="1370" width="110" height="50" as="geometry" />
        </mxCell>
        <mxCell id="gj6iwb3OOVinEKeIAZ-u-7" value="" style="html=1;points=[[0,0,0,0,5],[0,1,0,0,-5],[1,0,0,0,5],[1,1,0,0,-5]];perimeter=orthogonalPerimeter;outlineConnect=0;targetShapes=umlLifeline;portConstraint=eastwest;newEdgeStyle={&quot;curved&quot;:0,&quot;rounded&quot;:0};" parent="1" vertex="1">
          <mxGeometry x="255" y="1440" width="20" height="200" as="geometry" />
        </mxCell>
        <mxCell id="gj6iwb3OOVinEKeIAZ-u-8" value="" style="html=1;points=[[0,0,0,0,5],[0,1,0,0,-5],[1,0,0,0,5],[1,1,0,0,-5]];perimeter=orthogonalPerimeter;outlineConnect=0;targetShapes=umlLifeline;portConstraint=eastwest;newEdgeStyle={&quot;curved&quot;:0,&quot;rounded&quot;:0};" parent="1" vertex="1">
          <mxGeometry x="630" y="1440" width="20" height="170" as="geometry" />
        </mxCell>
        <mxCell id="gj6iwb3OOVinEKeIAZ-u-9" value="" style="endArrow=classic;html=1;rounded=0;exitX=1;exitY=0;exitDx=0;exitDy=5;exitPerimeter=0;" parent="1" edge="1">
          <mxGeometry width="50" height="50" relative="1" as="geometry">
            <mxPoint x="125" y="1480" as="sourcePoint" />
            <mxPoint x="255" y="1480" as="targetPoint" />
          </mxGeometry>
        </mxCell>
        <mxCell id="gj6iwb3OOVinEKeIAZ-u-10" value="" style="endArrow=classic;html=1;rounded=0;exitX=1;exitY=0;exitDx=0;exitDy=5;exitPerimeter=0;" parent="1" target="gj6iwb3OOVinEKeIAZ-u-26" edge="1">
          <mxGeometry width="50" height="50" relative="1" as="geometry">
            <mxPoint x="275" y="1490" as="sourcePoint" />
            <mxPoint x="430" y="1490" as="targetPoint" />
          </mxGeometry>
        </mxCell>
        <mxCell id="gj6iwb3OOVinEKeIAZ-u-11" value="" style="endArrow=classic;html=1;rounded=0;" parent="1" edge="1">
          <mxGeometry width="50" height="50" relative="1" as="geometry">
            <mxPoint x="465" y="1498" as="sourcePoint" />
            <mxPoint x="630" y="1498" as="targetPoint" />
          </mxGeometry>
        </mxCell>
        <mxCell id="gj6iwb3OOVinEKeIAZ-u-12" value="" style="html=1;verticalAlign=bottom;endArrow=open;dashed=1;endSize=8;curved=0;rounded=0;" parent="1" edge="1">
          <mxGeometry relative="1" as="geometry">
            <mxPoint x="630" y="1585" as="sourcePoint" />
            <mxPoint x="465" y="1585" as="targetPoint" />
            <Array as="points">
              <mxPoint x="570" y="1585" />
              <mxPoint x="530" y="1585" />
            </Array>
          </mxGeometry>
        </mxCell>
        <mxCell id="gj6iwb3OOVinEKeIAZ-u-13" value="" style="html=1;verticalAlign=bottom;endArrow=open;dashed=1;endSize=8;curved=0;rounded=0;" parent="1" edge="1">
          <mxGeometry relative="1" as="geometry">
            <mxPoint x="445" y="1633" as="sourcePoint" />
            <mxPoint x="275" y="1633" as="targetPoint" />
            <Array as="points">
              <mxPoint x="395" y="1633" />
            </Array>
          </mxGeometry>
        </mxCell>
        <mxCell id="gj6iwb3OOVinEKeIAZ-u-14" value="" style="html=1;verticalAlign=bottom;endArrow=open;dashed=1;endSize=8;curved=0;rounded=0;" parent="1" edge="1">
          <mxGeometry relative="1" as="geometry">
            <mxPoint x="255" y="1630" as="sourcePoint" />
            <mxPoint x="125" y="1630" as="targetPoint" />
            <Array as="points">
              <mxPoint x="200" y="1630" />
            </Array>
          </mxGeometry>
        </mxCell>
        <mxCell id="gj6iwb3OOVinEKeIAZ-u-15" value="Запрос на кредит" style="text;html=1;align=center;verticalAlign=middle;resizable=0;points=[];autosize=1;strokeColor=none;fillColor=none;" parent="1" vertex="1">
          <mxGeometry x="125" y="1450" width="120" height="30" as="geometry" />
        </mxCell>
        <mxCell id="gj6iwb3OOVinEKeIAZ-u-16" value="Запрос кредитных планов" style="text;html=1;align=center;verticalAlign=middle;resizable=0;points=[];autosize=1;strokeColor=none;fillColor=none;" parent="1" vertex="1">
          <mxGeometry x="275" y="1458" width="170" height="30" as="geometry" />
        </mxCell>
        <mxCell id="gj6iwb3OOVinEKeIAZ-u-17" value="Запрос данных о заемщике" style="text;html=1;align=center;verticalAlign=middle;resizable=0;points=[];autosize=1;strokeColor=none;fillColor=none;" parent="1" vertex="1">
          <mxGeometry x="455" y="1470" width="180" height="30" as="geometry" />
        </mxCell>
        <mxCell id="gj6iwb3OOVinEKeIAZ-u-22" value="Данные по заемщику" style="text;html=1;align=center;verticalAlign=middle;resizable=0;points=[];autosize=1;strokeColor=none;fillColor=none;" parent="1" vertex="1">
          <mxGeometry x="475" y="1555" width="140" height="30" as="geometry" />
        </mxCell>
        <mxCell id="gj6iwb3OOVinEKeIAZ-u-23" value="Подходящие &lt;br&gt;кредитные планы" style="text;html=1;align=center;verticalAlign=middle;resizable=0;points=[];autosize=1;strokeColor=none;fillColor=none;" parent="1" vertex="1">
          <mxGeometry x="300" y="1593" width="120" height="40" as="geometry" />
        </mxCell>
        <mxCell id="gj6iwb3OOVinEKeIAZ-u-24" value="Конечное &lt;br&gt;решение банка" style="text;html=1;align=center;verticalAlign=middle;resizable=0;points=[];autosize=1;strokeColor=none;fillColor=none;" parent="1" vertex="1">
          <mxGeometry x="130" y="1593" width="110" height="40" as="geometry" />
        </mxCell>
        <mxCell id="gj6iwb3OOVinEKeIAZ-u-26" value="" style="html=1;points=[[0,0,0,0,5],[0,1,0,0,-5],[1,0,0,0,5],[1,1,0,0,-5]];perimeter=orthogonalPerimeter;outlineConnect=0;targetShapes=umlLifeline;portConstraint=eastwest;newEdgeStyle={&quot;curved&quot;:0,&quot;rounded&quot;:0};" parent="1" vertex="1">
          <mxGeometry x="445" y="1440" width="20" height="200" as="geometry" />
        </mxCell>
        <mxCell id="gj6iwb3OOVinEKeIAZ-u-27" value="Принятие решения&lt;br&gt;&amp;nbsp;по кредиту" style="html=1;align=left;spacingLeft=2;endArrow=block;rounded=0;edgeStyle=orthogonalEdgeStyle;curved=0;rounded=0;" parent="1" edge="1">
          <mxGeometry relative="1" as="geometry">
            <mxPoint x="465" y="1602.93" as="sourcePoint" />
            <Array as="points">
              <mxPoint x="465" y="1600" />
              <mxPoint x="490" y="1600" />
              <mxPoint x="490" y="1620" />
            </Array>
            <mxPoint x="465" y="1620" as="targetPoint" />
          </mxGeometry>
        </mxCell>
        <mxCell id="gj6iwb3OOVinEKeIAZ-u-31" value="a: Заемщик" style="shape=umlActor;verticalLabelPosition=bottom;verticalAlign=top;html=1;" parent="1" vertex="1">
          <mxGeometry x="205" y="2060" width="30" height="60" as="geometry" />
        </mxCell>
        <mxCell id="gj6iwb3OOVinEKeIAZ-u-32" value="БД" style="html=1;whiteSpace=wrap;" parent="1" vertex="1">
          <mxGeometry x="505" y="2070" width="110" height="50" as="geometry" />
        </mxCell>
        <mxCell id="gj6iwb3OOVinEKeIAZ-u-33" value="b: Сотрудник банка" style="shape=umlActor;verticalLabelPosition=bottom;verticalAlign=top;html=1;" parent="1" vertex="1">
          <mxGeometry x="205" y="1840" width="30" height="60" as="geometry" />
        </mxCell>
        <mxCell id="gj6iwb3OOVinEKeIAZ-u-34" value="Банк" style="html=1;whiteSpace=wrap;" parent="1" vertex="1">
          <mxGeometry x="500" y="1840" width="110" height="50" as="geometry" />
        </mxCell>
        <mxCell id="gj6iwb3OOVinEKeIAZ-u-35" value="" style="endArrow=classic;html=1;rounded=0;exitX=1;exitY=0;exitDx=0;exitDy=5;exitPerimeter=0;" parent="1" edge="1">
          <mxGeometry width="50" height="50" relative="1" as="geometry">
            <mxPoint x="315" y="1850" as="sourcePoint" />
            <mxPoint x="445" y="1850" as="targetPoint" />
          </mxGeometry>
        </mxCell>
        <mxCell id="gj6iwb3OOVinEKeIAZ-u-36" value="Запрос на кредит" style="text;html=1;align=center;verticalAlign=middle;resizable=0;points=[];autosize=1;strokeColor=none;fillColor=none;" parent="1" vertex="1">
          <mxGeometry x="80" y="1970" width="120" height="30" as="geometry" />
        </mxCell>
        <mxCell id="gj6iwb3OOVinEKeIAZ-u-37" value="" style="endArrow=none;html=1;rounded=0;exitX=1;exitY=0;exitDx=0;exitDy=5;exitPerimeter=0;endFill=0;entryX=0;entryY=0.5;entryDx=0;entryDy=0;" parent="1" target="gj6iwb3OOVinEKeIAZ-u-34" edge="1">
          <mxGeometry width="50" height="50" relative="1" as="geometry">
            <mxPoint x="220" y="1864.62" as="sourcePoint" />
            <mxPoint x="490" y="1865" as="targetPoint" />
          </mxGeometry>
        </mxCell>
        <mxCell id="gj6iwb3OOVinEKeIAZ-u-39" value="Запрос кредитных планов" style="text;html=1;align=center;verticalAlign=middle;resizable=0;points=[];autosize=1;strokeColor=none;fillColor=none;" parent="1" vertex="1">
          <mxGeometry x="300" y="1820" width="170" height="30" as="geometry" />
        </mxCell>
        <mxCell id="gj6iwb3OOVinEKeIAZ-u-40" value="" style="endArrow=none;html=1;rounded=0;endFill=0;exitX=0.5;exitY=0;exitDx=0;exitDy=0;entryX=0.547;entryY=0.981;entryDx=0;entryDy=0;entryPerimeter=0;" parent="1" source="gj6iwb3OOVinEKeIAZ-u-32" target="gj6iwb3OOVinEKeIAZ-u-34" edge="1">
          <mxGeometry width="50" height="50" relative="1" as="geometry">
            <mxPoint x="560" y="2060" as="sourcePoint" />
            <mxPoint x="560" y="1900" as="targetPoint" />
          </mxGeometry>
        </mxCell>
        <mxCell id="gj6iwb3OOVinEKeIAZ-u-41" value="" style="endArrow=none;html=1;rounded=0;exitX=0.5;exitY=0;exitDx=0;exitDy=0;entryX=0.5;entryY=1;entryDx=0;entryDy=0;endFill=0;" parent="1" edge="1">
          <mxGeometry width="50" height="50" relative="1" as="geometry">
            <mxPoint x="219.62" y="2060" as="sourcePoint" />
            <mxPoint x="219.62" y="1880" as="targetPoint" />
          </mxGeometry>
        </mxCell>
        <mxCell id="gj6iwb3OOVinEKeIAZ-u-42" value="" style="html=1;verticalAlign=bottom;endArrow=open;dashed=1;endSize=8;curved=0;rounded=0;" parent="1" edge="1">
          <mxGeometry relative="1" as="geometry">
            <mxPoint x="249.23" y="1950" as="sourcePoint" />
            <mxPoint x="249.23" y="2030" as="targetPoint" />
            <Array as="points">
              <mxPoint x="249.23" y="1960" />
            </Array>
          </mxGeometry>
        </mxCell>
        <mxCell id="gj6iwb3OOVinEKeIAZ-u-43" value="Конечное &lt;br&gt;решение банка" style="text;html=1;align=center;verticalAlign=middle;resizable=0;points=[];autosize=1;strokeColor=none;fillColor=none;" parent="1" vertex="1">
          <mxGeometry x="245" y="1970" width="110" height="40" as="geometry" />
        </mxCell>
        <mxCell id="gj6iwb3OOVinEKeIAZ-u-44" value="" style="endArrow=classic;html=1;rounded=0;" parent="1" edge="1">
          <mxGeometry width="50" height="50" relative="1" as="geometry">
            <mxPoint x="200" y="2020" as="sourcePoint" />
            <mxPoint x="200" y="1950" as="targetPoint" />
          </mxGeometry>
        </mxCell>
        <mxCell id="gj6iwb3OOVinEKeIAZ-u-45" value="" style="html=1;verticalAlign=bottom;endArrow=open;dashed=1;endSize=8;curved=0;rounded=0;" parent="1" edge="1">
          <mxGeometry relative="1" as="geometry">
            <mxPoint x="445" y="1909.88" as="sourcePoint" />
            <mxPoint x="300" y="1909.88" as="targetPoint" />
            <Array as="points">
              <mxPoint x="420" y="1909.88" />
            </Array>
          </mxGeometry>
        </mxCell>
        <mxCell id="gj6iwb3OOVinEKeIAZ-u-46" value="Подходящие &lt;br&gt;кредитные планы" style="text;html=1;align=center;verticalAlign=middle;resizable=0;points=[];autosize=1;strokeColor=none;fillColor=none;" parent="1" vertex="1">
          <mxGeometry x="320" y="1870" width="120" height="40" as="geometry" />
        </mxCell>
        <mxCell id="gj6iwb3OOVinEKeIAZ-u-47" value="" style="endArrow=classic;html=1;rounded=0;" parent="1" edge="1">
          <mxGeometry width="50" height="50" relative="1" as="geometry">
            <mxPoint x="580" y="1938" as="sourcePoint" />
            <mxPoint x="580" y="2010" as="targetPoint" />
          </mxGeometry>
        </mxCell>
        <mxCell id="gj6iwb3OOVinEKeIAZ-u-48" value="Запрос данных о заемщике" style="text;html=1;align=center;verticalAlign=middle;resizable=0;points=[];autosize=1;strokeColor=none;fillColor=none;" parent="1" vertex="1">
          <mxGeometry x="570" y="1960" width="180" height="30" as="geometry" />
        </mxCell>
        <mxCell id="gj6iwb3OOVinEKeIAZ-u-49" value="" style="html=1;verticalAlign=bottom;endArrow=open;dashed=1;endSize=8;curved=0;rounded=0;" parent="1" edge="1">
          <mxGeometry relative="1" as="geometry">
            <mxPoint x="540" y="2010" as="sourcePoint" />
            <mxPoint x="540" y="1940" as="targetPoint" />
            <Array as="points">
              <mxPoint x="540" y="1940" />
            </Array>
          </mxGeometry>
        </mxCell>
        <mxCell id="gj6iwb3OOVinEKeIAZ-u-50" value="Данные по заемщику" style="text;html=1;align=center;verticalAlign=middle;resizable=0;points=[];autosize=1;strokeColor=none;fillColor=none;" parent="1" vertex="1">
          <mxGeometry x="400" y="1960" width="140" height="30" as="geometry" />
        </mxCell>
        <mxCell id="gj6iwb3OOVinEKeIAZ-u-52" value="&lt;font style=&quot;font-size: 8px;&quot;&gt;&lt;span style=&quot;text-align: left; background-color: rgb(255, 255, 255);&quot;&gt;Принятие решения&lt;/span&gt;&lt;br style=&quot;text-align: left;&quot;&gt;&lt;span style=&quot;text-align: left; background-color: rgb(255, 255, 255);&quot;&gt;&amp;nbsp;по кредиту&lt;/span&gt;&lt;/font&gt;" style="text;html=1;align=center;verticalAlign=middle;resizable=0;points=[];autosize=1;strokeColor=none;fillColor=none;" parent="1" vertex="1">
          <mxGeometry x="460" y="1890" width="90" height="40" as="geometry" />
        </mxCell>
        <mxCell id="gj6iwb3OOVinEKeIAZ-u-53" value="" style="edgeStyle=none;orthogonalLoop=1;jettySize=auto;html=1;rounded=0;" parent="1" edge="1">
          <mxGeometry width="100" relative="1" as="geometry">
            <mxPoint x="500" y="1880" as="sourcePoint" />
            <mxPoint x="525" y="1890" as="targetPoint" />
            <Array as="points">
              <mxPoint x="485" y="1880" />
              <mxPoint x="485" y="1900" />
              <mxPoint x="525" y="1900" />
            </Array>
          </mxGeometry>
        </mxCell>
        <mxCell id="_bcB7VQ0AN-ILyNSU62h-3" value="1" style="text;html=1;align=center;verticalAlign=middle;whiteSpace=wrap;rounded=0;" parent="1" vertex="1">
          <mxGeometry x="155" y="430" width="60" height="30" as="geometry" />
        </mxCell>
        <mxCell id="_bcB7VQ0AN-ILyNSU62h-4" value="2" style="text;html=1;align=center;verticalAlign=middle;whiteSpace=wrap;rounded=0;" parent="1" vertex="1">
          <mxGeometry x="290" y="470" width="60" height="30" as="geometry" />
        </mxCell>
        <mxCell id="_bcB7VQ0AN-ILyNSU62h-5" value="3" style="text;html=1;align=center;verticalAlign=middle;whiteSpace=wrap;rounded=0;" parent="1" vertex="1">
          <mxGeometry x="430" y="500" width="60" height="30" as="geometry" />
        </mxCell>
        <mxCell id="_bcB7VQ0AN-ILyNSU62h-6" value="4" style="text;html=1;align=center;verticalAlign=middle;whiteSpace=wrap;rounded=0;" parent="1" vertex="1">
          <mxGeometry x="550" y="530" width="60" height="30" as="geometry" />
        </mxCell>
        <mxCell id="_bcB7VQ0AN-ILyNSU62h-7" value="5" style="text;html=1;align=center;verticalAlign=middle;whiteSpace=wrap;rounded=0;" parent="1" vertex="1">
          <mxGeometry x="680" y="550" width="60" height="30" as="geometry" />
        </mxCell>
        <mxCell id="_bcB7VQ0AN-ILyNSU62h-8" value="6" style="text;html=1;align=center;verticalAlign=middle;whiteSpace=wrap;rounded=0;" parent="1" vertex="1">
          <mxGeometry x="415" y="620" width="60" height="30" as="geometry" />
        </mxCell>
        <mxCell id="_bcB7VQ0AN-ILyNSU62h-9" value="1" style="text;html=1;align=center;verticalAlign=middle;whiteSpace=wrap;rounded=0;" parent="1" vertex="1">
          <mxGeometry x="260" y="1065" width="60" height="30" as="geometry" />
        </mxCell>
        <mxCell id="_bcB7VQ0AN-ILyNSU62h-10" value="2" style="text;html=1;align=center;verticalAlign=middle;whiteSpace=wrap;rounded=0;" parent="1" vertex="1">
          <mxGeometry x="195" y="1075" width="60" height="30" as="geometry" />
        </mxCell>
        <mxCell id="_bcB7VQ0AN-ILyNSU62h-11" value="3" style="text;html=1;align=center;verticalAlign=middle;whiteSpace=wrap;rounded=0;" parent="1" vertex="1">
          <mxGeometry x="350" y="1150" width="60" height="30" as="geometry" />
        </mxCell>
        <mxCell id="_bcB7VQ0AN-ILyNSU62h-12" value="4" style="text;html=1;align=center;verticalAlign=middle;whiteSpace=wrap;rounded=0;" parent="1" vertex="1">
          <mxGeometry x="525" y="1105" width="60" height="30" as="geometry" />
        </mxCell>
        <mxCell id="_bcB7VQ0AN-ILyNSU62h-14" value="5" style="text;html=1;align=center;verticalAlign=middle;whiteSpace=wrap;rounded=0;" parent="1" vertex="1">
          <mxGeometry x="610" y="925.9" width="60" height="30" as="geometry" />
        </mxCell>
        <mxCell id="_bcB7VQ0AN-ILyNSU62h-15" value="6" style="text;html=1;align=center;verticalAlign=middle;whiteSpace=wrap;rounded=0;" parent="1" vertex="1">
          <mxGeometry x="465" y="1045" width="60" height="30" as="geometry" />
        </mxCell>
        <mxCell id="_bcB7VQ0AN-ILyNSU62h-16" value="1" style="text;html=1;align=center;verticalAlign=middle;whiteSpace=wrap;rounded=0;" parent="1" vertex="1">
          <mxGeometry x="150" y="1480" width="60" height="30" as="geometry" />
        </mxCell>
        <mxCell id="_bcB7VQ0AN-ILyNSU62h-17" value="2" style="text;html=1;align=center;verticalAlign=middle;whiteSpace=wrap;rounded=0;" parent="1" vertex="1">
          <mxGeometry x="330" y="1488" width="60" height="30" as="geometry" />
        </mxCell>
        <mxCell id="_bcB7VQ0AN-ILyNSU62h-18" value="3" style="text;html=1;align=center;verticalAlign=middle;whiteSpace=wrap;rounded=0;" parent="1" vertex="1">
          <mxGeometry x="515" y="1498" width="60" height="30" as="geometry" />
        </mxCell>
        <mxCell id="_bcB7VQ0AN-ILyNSU62h-19" value="4" style="text;html=1;align=center;verticalAlign=middle;whiteSpace=wrap;rounded=0;" parent="1" vertex="1">
          <mxGeometry x="580" y="1585" width="60" height="30" as="geometry" />
        </mxCell>
        <mxCell id="_bcB7VQ0AN-ILyNSU62h-20" value="5" style="text;html=1;align=center;verticalAlign=middle;whiteSpace=wrap;rounded=0;" parent="1" vertex="1">
          <mxGeometry x="455" y="1615" width="60" height="30" as="geometry" />
        </mxCell>
        <mxCell id="_bcB7VQ0AN-ILyNSU62h-21" value="6" style="text;html=1;align=center;verticalAlign=middle;whiteSpace=wrap;rounded=0;" parent="1" vertex="1">
          <mxGeometry x="330" y="1633" width="60" height="30" as="geometry" />
        </mxCell>
        <mxCell id="_bcB7VQ0AN-ILyNSU62h-22" value="7" style="text;html=1;align=center;verticalAlign=middle;whiteSpace=wrap;rounded=0;" parent="1" vertex="1">
          <mxGeometry x="160" y="1630" width="60" height="30" as="geometry" />
        </mxCell>
        <mxCell id="_bcB7VQ0AN-ILyNSU62h-23" value="1" style="text;html=1;align=center;verticalAlign=middle;whiteSpace=wrap;rounded=0;" parent="1" vertex="1">
          <mxGeometry x="130" y="1950" width="60" height="30" as="geometry" />
        </mxCell>
        <mxCell id="_bcB7VQ0AN-ILyNSU62h-24" value="2" style="text;html=1;align=center;verticalAlign=middle;whiteSpace=wrap;rounded=0;" parent="1" vertex="1">
          <mxGeometry x="354" y="1800" width="60" height="30" as="geometry" />
        </mxCell>
        <mxCell id="_bcB7VQ0AN-ILyNSU62h-25" value="3" style="text;html=1;align=center;verticalAlign=middle;whiteSpace=wrap;rounded=0;" parent="1" vertex="1">
          <mxGeometry x="585" y="1980" width="60" height="30" as="geometry" />
        </mxCell>
        <mxCell id="_bcB7VQ0AN-ILyNSU62h-26" value="4" style="text;html=1;align=center;verticalAlign=middle;whiteSpace=wrap;rounded=0;" parent="1" vertex="1">
          <mxGeometry x="470" y="1980" width="60" height="30" as="geometry" />
        </mxCell>
        <mxCell id="_bcB7VQ0AN-ILyNSU62h-27" value="5" style="text;html=1;align=center;verticalAlign=middle;whiteSpace=wrap;rounded=0;" parent="1" vertex="1">
          <mxGeometry x="470" y="1920" width="60" height="30" as="geometry" />
        </mxCell>
        <mxCell id="_bcB7VQ0AN-ILyNSU62h-28" value="6" style="text;html=1;align=center;verticalAlign=middle;whiteSpace=wrap;rounded=0;" parent="1" vertex="1">
          <mxGeometry x="350" y="1910" width="60" height="30" as="geometry" />
        </mxCell>
        <mxCell id="_bcB7VQ0AN-ILyNSU62h-29" value="7" style="text;html=1;align=center;verticalAlign=middle;whiteSpace=wrap;rounded=0;" parent="1" vertex="1">
          <mxGeometry x="250" y="1950" width="60" height="30" as="geometry" />
        </mxCell>
      </root>
    </mxGraphModel>
  </diagram>
</mxfile>
